<?xml version="1.0" standalone="no"?>
<!DOCTYPE svg PUBLIC "-//W3C//DTD SVG 20010904//EN"
 "http://www.w3.org/TR/2001/REC-SVG-20010904/DTD/svg10.dtd">
<svg version="1.0" xmlns="http://www.w3.org/2000/svg"
 width="2032.000000pt" height="2032.000000pt" viewBox="0 0 2032.000000 2032.000000"
 preserveAspectRatio="xMidYMid meet">
<metadata>
Created by potrace 1.11, written by Peter Selinger 2001-2013
</metadata>
<g transform="translate(0.000000,2032.000000) scale(0.100000,-0.100000)"
fill="#000000" stroke="none">
<path d="M9689 19186 c-3 -3 -63 -8 -133 -11 -254 -10 -639 -52 -931 -101 -82
-14 -163 -27 -180 -30 -16 -3 -37 -7 -45 -9 -8 -2 -31 -7 -50 -9 -19 -3 -55
-10 -80 -16 -25 -6 -56 -13 -70 -15 -31 -5 -66 -13 -88 -19 -9 -3 -28 -7 -42
-10 -14 -3 -35 -7 -47 -10 -13 -4 -33 -8 -45 -12 -13 -3 -34 -7 -48 -10 -14
-3 -32 -7 -40 -9 -8 -2 -17 -4 -20 -6 -3 -1 -9 -3 -15 -4 -5 -2 -12 -4 -15 -5
-3 -1 -12 -3 -20 -5 -8 -2 -26 -7 -40 -10 -14 -3 -32 -8 -40 -10 -8 -2 -15 -4
-15 -5 0 -1 -10 -3 -22 -6 -12 -2 -41 -10 -65 -19 -24 -8 -48 -15 -55 -15 -6
0 -24 -5 -40 -12 -15 -6 -31 -11 -35 -10 -9 2 -456 -150 -553 -188 -44 -17
-84 -33 -90 -34 -14 -4 -43 -16 -95 -38 -25 -11 -72 -30 -105 -42 -61 -24 -94
-38 -243 -107 -46 -22 -86 -39 -88 -39 -14 0 -535 -268 -544 -279 -3 -4 -18
-12 -35 -20 -93 -40 -545 -326 -765 -483 -91 -64 -173 -123 -184 -130 -10 -7
-24 -17 -30 -23 -6 -5 -29 -23 -51 -40 -47 -35 -37 -27 -150 -117 -92 -73
-252 -207 -292 -243 -12 -11 -45 -40 -74 -65 -177 -153 -517 -493 -724 -725
-33 -37 -65 -73 -70 -79 -94 -103 -410 -502 -487 -616 -9 -14 -38 -54 -63 -90
-51 -71 -216 -321 -255 -385 -13 -22 -28 -41 -32 -43 -4 -2 -8 -8 -8 -13 0 -5
-15 -32 -32 -62 -51 -82 -52 -83 -148 -254 -414 -738 -730 -1573 -905 -2393
-15 -69 -29 -132 -32 -140 -4 -8 -6 -18 -5 -22 1 -4 -9 -67 -23 -140 -21 -115
-53 -324 -70 -453 -20 -156 -57 -594 -57 -682 0 -37 -3 -51 -12 -46 -6 4 -5
-1 3 -10 9 -11 10 -17 2 -17 -12 0 -14 -661 -1 -670 4 -3 10 -76 14 -164 3
-87 8 -175 11 -195 3 -20 12 -110 20 -201 9 -91 27 -240 41 -332 13 -92 24
-170 23 -175 -1 -4 0 -15 4 -23 3 -8 11 -46 17 -85 113 -674 366 -1489 646
-2084 24 -51 44 -95 44 -97 0 -7 135 -276 195 -388 49 -93 99 -183 186 -334
49 -84 250 -402 276 -437 5 -5 37 -53 73 -105 35 -52 68 -99 72 -105 5 -5 26
-35 48 -65 22 -30 43 -59 47 -65 5 -5 55 -71 113 -145 94 -122 203 -256 286
-350 107 -122 215 -241 254 -282 25 -25 50 -52 56 -60 21 -25 392 -383 465
-449 102 -91 265 -230 339 -289 18 -14 37 -30 44 -35 25 -24 319 -246 339
-258 11 -7 29 -19 39 -28 10 -9 44 -34 76 -55 31 -21 59 -42 60 -46 2 -5 8 -8
13 -8 12 0 132 -82 137 -92 2 -5 8 -8 12 -8 5 0 61 -34 125 -75 63 -42 123
-79 133 -82 9 -4 19 -9 22 -13 3 -3 52 -33 110 -67 242 -140 536 -293 720
-375 25 -11 52 -24 60 -29 8 -5 22 -12 30 -15 8 -4 98 -42 200 -84 173 -73
444 -178 472 -184 16 -4 47 -15 73 -27 11 -6 30 -11 43 -12 12 0 22 -5 22 -9
0 -4 11 -8 24 -8 14 0 28 -5 31 -10 4 -6 10 -8 15 -5 5 3 11 1 15 -5 4 -6 10
-8 15 -5 5 3 17 1 27 -4 17 -9 48 -21 66 -26 4 -2 10 -4 15 -5 4 -1 12 -3 17
-4 22 -4 71 -19 80 -24 5 -4 16 -7 25 -8 15 -1 151 -40 180 -51 8 -3 24 -7 35
-9 11 -1 74 -16 140 -33 136 -35 442 -102 453 -99 4 0 14 -1 22 -5 14 -5 117
-24 190 -34 19 -2 49 -7 65 -9 17 -3 44 -7 60 -9 17 -2 30 -4 30 -5 0 -3 85
-16 180 -26 17 -1 50 -6 75 -9 25 -3 68 -8 95 -11 258 -24 378 -33 503 -36 47
-2 82 -7 82 -13 0 -5 5 -3 10 5 6 9 10 10 10 3 0 -17 670 -17 670 0 0 7 4 6
10 -3 5 -8 10 -10 10 -5 0 6 34 11 78 12 85 2 205 10 297 18 33 3 83 8 110 10
82 6 163 15 265 30 14 2 45 6 70 9 92 11 139 17 161 22 13 2 46 7 73 10 28 3
53 7 57 10 4 2 27 6 50 9 85 11 397 77 594 127 110 28 207 52 215 53 8 1 22 5
30 8 18 7 128 38 144 41 6 1 16 5 23 9 6 4 23 8 37 9 14 1 26 6 26 10 0 4 7 8
16 8 9 0 57 14 108 31 50 17 96 32 103 33 7 1 16 5 19 9 4 4 13 7 20 7 7 0 25
5 41 12 15 6 33 12 40 14 42 8 529 203 624 248 29 14 59 26 66 26 7 0 13 4 13
10 0 5 3 9 8 8 4 0 24 6 44 15 21 10 42 17 48 17 5 0 10 5 10 10 0 6 6 10 13
10 18 0 431 210 450 229 4 4 -8 25 -28 47 -20 21 -56 69 -81 106 -24 36 -62
84 -83 106 -22 22 -53 64 -70 93 -17 30 -49 72 -71 94 -23 22 -59 69 -80 105
-22 36 -56 83 -77 104 -42 45 -92 118 -96 144 -5 26 -33 75 -54 94 -11 10 -32
44 -47 75 -25 52 -34 61 -87 87 -32 16 -67 37 -78 48 -11 10 -25 18 -31 18 -6
0 -52 -21 -102 -46 -50 -25 -132 -64 -182 -86 -50 -22 -111 -50 -136 -61 -25
-11 -47 -21 -50 -22 -9 -3 -43 -18 -99 -42 -29 -12 -60 -23 -67 -23 -8 0 -14
-4 -14 -8 0 -5 -6 -9 -12 -9 -7 0 -58 -17 -113 -38 -167 -63 -417 -145 -426
-139 -5 3 -9 0 -9 -5 0 -6 -3 -10 -7 -10 -5 1 -10 0 -13 -1 -3 -1 -13 -3 -22
-6 -10 -2 -26 -6 -35 -8 -10 -3 -18 -5 -18 -6 0 -1 -8 -3 -17 -6 -10 -2 -26
-6 -35 -8 -10 -3 -18 -5 -18 -6 0 -1 -11 -4 -25 -7 -39 -7 -55 -11 -55 -13 0
-1 -7 -3 -15 -5 -8 -2 -25 -6 -37 -9 -13 -3 -33 -9 -45 -12 -13 -3 -30 -7 -38
-9 -8 -2 -15 -4 -15 -5 0 -1 -9 -3 -20 -5 -22 -3 -67 -14 -137 -31 -5 -1 -9
-2 -10 -3 -2 -2 -16 -4 -32 -6 -16 -2 -52 -9 -80 -15 -28 -6 -64 -13 -81 -16
-16 -2 -65 -10 -110 -18 -374 -70 -732 -100 -1210 -100 -323 -1 -657 9 -675
19 -3 1 -43 6 -90 9 -47 4 -98 9 -115 11 -16 2 -84 11 -150 20 -66 9 -169 24
-230 35 -60 10 -126 22 -145 25 -19 3 -64 12 -100 20 -36 8 -78 17 -95 19 -16
2 -30 5 -30 6 0 1 -7 3 -15 5 -8 2 -26 6 -40 9 -24 5 -46 10 -90 21 -11 3 -29
7 -40 10 -11 3 -29 7 -40 10 -32 8 -64 16 -80 20 -8 2 -15 4 -15 5 0 1 -7 3
-15 5 -40 10 -59 15 -110 30 -30 8 -59 17 -65 18 -5 1 -16 6 -22 10 -7 5 -13
6 -13 3 0 -12 -541 181 -649 232 -18 8 -39 15 -47 15 -8 0 -14 4 -14 9 0 4 -4
8 -9 8 -5 0 -22 5 -38 12 -15 6 -30 12 -33 13 -3 0 -30 13 -60 27 -30 14 -58
26 -62 27 -23 4 -525 263 -545 280 -7 6 -15 11 -19 11 -10 0 -129 73 -132 82
-2 4 -8 6 -12 3 -5 -3 -18 3 -30 15 -11 11 -21 19 -22 18 -6 -4 -333 208 -362
234 -11 10 -28 20 -38 24 -10 3 -18 9 -18 12 0 4 -16 16 -35 26 -19 11 -35 23
-35 28 0 4 -6 8 -14 8 -8 0 -21 8 -28 18 -7 10 -20 21 -28 24 -13 5 -136 102
-340 268 -196 159 -521 473 -740 716 -122 135 -325 381 -395 478 -11 16 -26
34 -32 41 -7 8 -13 18 -13 23 0 6 -4 12 -8 14 -5 2 -48 59 -96 128 -48 69 -92
132 -99 141 -18 24 -35 50 -57 91 -11 20 -23 38 -27 40 -5 1 -15 17 -24 33
-18 34 -134 228 -173 291 -14 23 -26 46 -26 52 0 6 -3 12 -8 14 -8 4 -22 30
-142 268 -198 394 -376 847 -490 1250 -12 41 -24 82 -27 90 -3 8 -7 22 -8 31
-2 18 -24 107 -33 129 -3 8 -5 18 -4 21 0 3 -8 39 -19 80 -20 76 -25 95 -32
139 -2 14 -16 86 -30 160 -44 236 -59 330 -82 530 -16 138 -21 187 -35 390
-10 144 -10 857 1 936 4 32 10 100 13 149 3 50 13 149 21 220 9 72 18 148 20
170 5 47 46 284 75 435 60 310 199 800 305 1075 15 39 28 75 29 80 2 6 8 21
13 35 6 14 29 70 51 125 53 131 107 253 173 390 22 44 39 85 39 92 0 6 3 13 8
15 4 2 23 35 42 73 51 102 201 372 261 467 61 99 171 269 181 283 4 6 57 80
118 165 60 85 121 169 134 185 l24 30 10 -25 c11 -26 18 -35 131 -160 38 -41
92 -102 121 -135 29 -33 58 -64 64 -70 6 -5 40 -44 76 -85 36 -41 74 -83 85
-95 11 -11 74 -81 140 -155 66 -74 129 -144 140 -156 17 -17 108 -119 165
-184 17 -19 160 -177 175 -194 6 -6 18 -21 26 -33 8 -12 55 -65 104 -119 50
-54 119 -130 154 -168 72 -79 104 -115 153 -166 18 -19 75 -82 127 -140 123
-136 207 -228 265 -290 33 -36 86 -94 236 -259 47 -52 96 -106 110 -121 44
-47 194 -212 210 -230 19 -21 178 -195 205 -224 18 -19 142 -156 235 -259 19
-21 55 -61 80 -87 66 -71 105 -114 200 -220 47 -52 101 -111 120 -131 37 -39
81 -86 200 -218 140 -155 165 -182 210 -230 25 -26 65 -70 89 -97 42 -47 179
-198 231 -255 14 -15 49 -54 78 -86 29 -32 70 -74 89 -95 l36 -36 -28 -34
c-23 -28 -112 -128 -190 -214 -11 -12 -33 -37 -50 -56 -118 -133 -194 -217
-215 -239 -14 -15 -46 -51 -71 -81 -26 -29 -62 -69 -80 -89 -32 -33 -140 -154
-178 -198 -9 -11 -48 -54 -87 -96 -38 -43 -78 -87 -89 -100 -11 -12 -50 -55
-87 -96 -36 -41 -75 -83 -85 -95 -49 -57 -152 -171 -183 -204 -19 -21 -48 -52
-64 -71 -56 -64 -180 -204 -200 -225 -12 -12 -43 -47 -71 -79 -27 -32 -59 -67
-70 -79 -11 -11 -58 -64 -104 -116 -46 -52 -97 -108 -113 -125 -15 -16 -40
-44 -55 -61 -16 -18 -62 -69 -104 -115 -42 -46 -97 -109 -124 -139 -26 -30
-58 -66 -71 -80 -13 -14 -36 -39 -51 -56 -41 -46 -91 -101 -148 -164 -27 -31
-79 -89 -115 -130 -36 -41 -76 -86 -90 -101 -82 -89 -247 -273 -340 -379 -36
-40 -74 -83 -85 -94 -11 -12 -54 -59 -95 -105 -41 -47 -82 -92 -90 -101 -8 -9
-44 -49 -80 -90 -36 -40 -77 -86 -93 -102 -15 -16 -27 -30 -27 -32 0 -1 683
-3 1518 -3 l1517 -1 23 27 c55 62 74 84 202 236 74 88 139 165 145 171 29 31
112 130 125 148 8 12 20 26 26 31 7 6 36 39 66 75 55 68 87 106 126 148 12 14
33 39 45 55 12 16 27 34 33 40 5 7 39 46 74 87 35 41 74 85 87 98 12 13 23 26
23 30 0 4 20 28 43 53 23 26 56 63 72 83 17 21 35 43 40 49 50 56 176 205 260
306 11 13 31 36 44 50 12 14 39 46 60 70 20 24 41 49 46 55 6 6 32 38 60 71
27 33 54 65 60 71 5 7 26 31 45 54 19 23 44 52 55 64 11 11 63 72 114 134 52
61 97 112 101 112 4 0 19 -15 35 -32 47 -54 170 -193 175 -198 5 -5 114 -130
160 -184 14 -16 30 -34 35 -40 12 -14 211 -240 245 -280 14 -16 30 -34 35 -40
6 -6 57 -65 114 -131 58 -66 113 -129 123 -140 10 -11 30 -34 46 -51 15 -17
41 -47 57 -65 28 -32 127 -145 185 -212 14 -16 34 -39 45 -51 11 -12 45 -51
75 -86 30 -35 60 -68 65 -74 6 -6 39 -45 75 -86 61 -70 98 -112 145 -165 36
-40 79 -89 184 -210 57 -66 112 -129 122 -140 11 -11 31 -33 45 -50 45 -54
109 -127 120 -139 6 -6 63 -72 128 -146 65 -74 130 -148 144 -165 15 -16 47
-52 71 -80 24 -27 71 -81 105 -119 33 -38 77 -87 96 -108 90 -102 88 -101 124
-95 24 4 40 0 53 -11 11 -9 28 -22 39 -28 10 -6 25 -24 33 -40 24 -50 81 -114
102 -114 26 0 57 16 89 46 14 13 57 49 95 81 39 32 75 62 81 68 6 5 28 24 49
40 21 17 43 35 49 40 6 6 34 28 61 50 100 80 99 90 -10 211 -54 60 -146 165
-209 237 l-76 88 104 87 c57 48 123 103 147 123 24 20 69 57 99 83 l55 46 35
-38 c69 -75 110 -124 110 -132 0 -4 -19 -23 -42 -41 -23 -19 -59 -49 -79 -66
-20 -18 -41 -33 -47 -33 -10 0 -22 -26 -29 -60 -2 -15 41 -83 81 -124 23 -24
114 -127 146 -166 33 -39 123 -141 145 -165 11 -12 38 -43 60 -70 22 -27 60
-72 85 -99 49 -54 85 -95 97 -111 5 -6 38 -45 76 -87 37 -42 67 -78 67 -81 0
-2 -32 -31 -71 -63 -39 -33 -78 -65 -86 -73 -12 -12 -17 -10 -36 14 -12 15
-37 42 -54 60 -18 18 -33 36 -33 39 0 3 -15 21 -33 39 -19 17 -61 66 -95 107
-107 132 -126 150 -158 156 -28 5 -41 -2 -128 -75 -53 -45 -101 -81 -106 -81
-6 0 -10 -4 -10 -9 0 -5 -30 -33 -67 -62 -67 -52 -113 -92 -160 -136 -28 -27
-30 -57 -5 -84 33 -35 47 -69 36 -86 -14 -23 12 -70 78 -143 29 -32 73 -82 98
-111 126 -147 139 -154 195 -114 26 19 140 111 194 157 l25 21 40 -45 c65 -71
106 -121 106 -128 0 -4 -10 -14 -22 -23 -13 -8 -35 -25 -49 -38 -15 -13 -46
-40 -70 -59 -97 -79 -110 -95 -99 -124 5 -15 20 -37 32 -50 13 -12 39 -42 58
-66 19 -24 43 -51 53 -59 9 -9 17 -20 17 -27 0 -6 11 -17 25 -24 14 -7 25 -17
25 -21 0 -8 140 -171 191 -221 26 -27 58 -36 72 -21 4 3 33 8 65 10 48 4 61 1
75 -15 10 -11 19 -29 20 -40 2 -26 -24 -102 -35 -102 -4 0 -8 -11 -8 -24 0
-23 46 -86 96 -133 13 -12 24 -25 24 -29 0 -13 85 -90 113 -102 30 -13 30 -13
92 60 23 27 156 138 166 138 3 0 34 -33 69 -72 35 -40 76 -86 91 -103 16 -16
63 -70 105 -120 43 -49 80 -92 84 -95 3 -3 13 -15 21 -27 15 -22 99 -118 164
-187 17 -18 42 -48 56 -67 15 -19 54 -65 87 -102 54 -61 60 -72 55 -101 -5
-32 -3 -34 47 -57 62 -28 99 -30 113 -8 8 13 5 23 -11 44 -12 15 -22 33 -22
39 1 6 22 28 48 48 26 21 60 49 76 63 16 14 32 25 37 25 4 0 16 15 27 33 17
29 17 36 5 53 -29 40 -69 89 -103 126 -70 76 -68 68 -29 100 19 17 59 49 89
72 l55 43 79 -94 c43 -52 89 -98 103 -104 26 -10 50 2 114 56 20 16 56 46 79
65 24 19 55 46 71 60 15 14 42 36 60 50 18 14 60 48 93 76 l60 52 36 -38 c19
-21 51 -58 70 -81 88 -107 96 -107 224 -2 50 41 146 119 213 174 67 54 129
109 137 121 32 46 28 54 -111 207 l-42 46 50 46 c28 26 49 54 49 66 0 17 -27
54 -95 129 -5 6 -32 37 -60 68 -29 33 -58 56 -70 56 -21 0 -57 -22 -94 -57
l-23 -21 -74 81 c-40 45 -74 85 -74 90 0 4 12 17 27 30 52 43 73 66 73 81 0
18 -81 118 -205 251 -22 24 -58 65 -80 91 -22 25 -45 52 -50 58 -6 6 -39 45
-75 86 -36 41 -67 77 -70 80 -3 3 -34 39 -70 80 -36 41 -67 77 -70 80 -3 3
-34 39 -69 80 -36 41 -73 84 -83 95 -25 28 -56 65 -103 121 -91 110 -132 146
-157 139 -13 -4 -30 -15 -38 -24 -9 -10 -27 -25 -41 -34 -25 -17 -26 -16 -72
30 -26 26 -47 50 -47 55 0 4 -14 22 -32 38 l-32 31 24 16 c57 40 84 88 66 120
-10 20 -76 100 -121 147 -11 12 -42 48 -70 81 -27 33 -63 74 -80 91 -16 17
-39 42 -50 55 -119 141 -250 289 -256 289 -5 0 -9 6 -9 13 -1 6 -23 37 -51 67
-28 30 -67 75 -87 100 -20 25 -43 49 -49 53 -7 4 -13 12 -13 16 0 5 -15 24
-32 43 -18 19 -47 50 -63 69 -17 18 -60 68 -96 109 -36 41 -74 85 -85 98 -10
13 -28 34 -39 46 -11 12 -42 48 -70 81 -27 32 -60 69 -73 82 -13 12 -21 23
-18 23 2 0 -8 12 -22 27 -15 16 -41 46 -57 67 -17 22 -45 54 -62 72 -18 18
-33 35 -33 38 0 2 -12 17 -27 33 -16 16 -35 38 -44 49 -8 10 -42 48 -75 85
-63 69 -134 152 -180 209 -16 19 -40 47 -54 61 -14 14 -43 47 -65 74 -22 26
-49 57 -61 69 -11 11 -47 52 -80 91 -32 38 -66 76 -74 86 -8 9 -22 25 -30 35
-19 22 -200 234 -215 250 -29 31 -136 154 -161 184 -16 19 -38 44 -49 56 -11
12 -42 48 -70 80 -27 32 -66 76 -86 99 -20 22 -44 51 -55 64 -10 14 -31 37
-46 52 -16 15 -28 30 -28 33 0 4 -12 19 -27 35 -16 15 -49 52 -74 82 -97 114
-184 214 -194 225 -5 6 -30 35 -55 64 -25 29 -52 60 -61 69 -9 9 -45 50 -80
91 -35 41 -68 80 -74 86 -5 6 -35 40 -65 75 -30 35 -62 70 -70 79 -8 8 -37 42
-65 75 -27 33 -55 65 -61 70 -6 6 -46 53 -90 105 -43 52 -87 103 -96 114 -10
11 -18 27 -18 36 0 8 8 22 18 31 9 8 58 60 107 115 91 100 129 141 207 225 58
62 94 102 223 244 59 66 120 132 134 146 14 14 58 61 96 104 103 114 102 113
200 220 50 54 101 110 115 125 14 15 68 73 120 130 52 58 109 119 125 136 17
18 62 67 100 110 39 42 81 89 95 104 14 15 50 54 80 87 66 72 225 245 260 283
14 15 61 67 105 115 84 93 179 196 230 250 17 18 46 50 65 71 99 110 249 275
289 318 80 84 175 188 326 355 22 24 56 60 75 81 53 56 193 210 230 253 l32
37 -68 0 c-38 1 -724 1 -1524 1 l-1455 0 -24 -28 c-13 -15 -47 -55 -76 -88
-29 -33 -67 -78 -86 -100 -57 -67 -83 -96 -109 -125 -35 -39 -63 -71 -164
-190 -50 -58 -97 -112 -105 -121 -9 -9 -34 -38 -56 -64 -22 -26 -49 -57 -61
-68 -11 -12 -76 -87 -144 -167 -68 -80 -133 -155 -145 -167 -11 -12 -39 -43
-61 -70 -23 -26 -77 -89 -120 -139 -44 -49 -99 -114 -124 -143 -25 -30 -56
-66 -70 -81 -28 -30 -36 -40 -174 -200 -54 -63 -107 -122 -117 -132 -10 -9
-19 -20 -19 -25 0 -5 -10 -18 -22 -29 -13 -11 -40 -40 -61 -65 -85 -100 -87
-102 -100 -86 -34 43 -85 103 -104 124 -13 13 -23 28 -23 33 0 5 -6 13 -13 17
-7 4 -58 63 -112 131 -55 67 -103 122 -107 122 -4 0 -8 6 -8 13 0 7 -10 23
-22 35 -13 11 -27 27 -33 34 -16 21 -99 123 -105 128 -3 3 -40 48 -82 100 -42
52 -89 109 -105 127 -15 18 -39 47 -53 64 -14 18 -29 37 -35 43 -5 6 -28 34
-50 61 -21 28 -42 52 -45 55 -3 3 -35 41 -70 85 -36 44 -69 85 -75 91 -5 6
-23 28 -40 49 -16 21 -37 46 -45 55 -8 8 -46 54 -84 100 -38 47 -75 90 -82 96
-8 6 -14 15 -14 20 0 5 -23 34 -50 64 -27 30 -56 63 -64 73 -9 9 -16 21 -16
26 0 5 -4 11 -9 13 -8 3 -162 186 -239 286 -19 23 -39 42 -45 42 -10 0 -87 79
-87 90 0 3 -10 17 -23 32 -12 14 -49 61 -82 104 -75 96 -179 231 -206 264 -18
23 -150 193 -166 215 -14 17 -187 239 -200 255 -7 8 -52 67 -100 130 -48 63
-96 124 -105 135 -9 11 -32 40 -51 65 -18 25 -76 99 -128 166 -52 66 -105 136
-119 154 -14 18 -33 42 -42 54 -10 11 -21 26 -26 31 -4 6 -91 117 -192 249
-102 131 -219 282 -261 335 -72 92 -115 147 -252 326 -34 44 -66 85 -72 92
-37 44 -39 39 53 96 151 93 228 137 239 137 6 0 13 3 15 8 2 4 26 20 53 35 68
38 429 217 485 241 25 11 82 36 128 57 45 21 85 38 87 38 3 1 22 8 43 17 20 9
42 17 47 18 6 1 28 10 50 20 22 10 45 19 50 20 6 2 24 8 40 15 17 6 41 15 55
20 14 5 34 12 45 17 11 4 25 8 30 9 6 2 71 24 145 49 182 63 537 163 694 196
119 24 204 42 231 46 17 3 41 7 55 10 14 3 36 7 50 9 14 2 41 7 60 10 19 4 46
9 60 11 14 2 41 6 60 10 19 3 51 7 70 9 19 1 35 4 35 5 0 1 16 4 35 5 19 2 56
6 83 9 165 20 253 28 472 41 109 7 689 7 800 0 228 -13 386 -28 545 -49 19 -3
58 -8 85 -11 67 -8 90 -12 90 -14 0 -1 14 -4 30 -6 17 -2 44 -7 60 -9 17 -3
48 -8 70 -11 22 -2 54 -8 70 -12 17 -4 36 -6 43 -4 6 1 12 -3 12 -8 0 -6 7 -8
15 -5 8 4 23 3 33 -1 9 -4 24 -9 32 -10 220 -35 845 -215 1065 -306 17 -7 32
-13 35 -13 3 -1 11 -5 18 -9 6 -5 12 -6 12 -2 0 3 10 0 23 -7 12 -7 24 -13 27
-13 26 -5 110 -42 110 -48 0 -4 5 -5 10 -2 6 3 10 1 10 -5 0 -6 4 -9 8 -6 16
10 585 -258 732 -344 25 -15 123 -74 218 -131 96 -57 188 -112 205 -123 18
-10 33 -22 35 -27 2 -5 8 -9 14 -9 12 0 289 -192 393 -272 6 -5 35 -27 65 -50
30 -24 60 -47 66 -53 7 -5 27 -21 45 -35 35 -27 283 -239 364 -311 58 -52 412
-406 470 -470 52 -58 209 -241 260 -303 22 -27 52 -63 67 -80 15 -17 28 -34
28 -38 0 -4 6 -13 13 -20 26 -26 217 -286 262 -357 6 -9 13 -18 16 -21 3 -3
39 -57 79 -120 40 -63 76 -117 79 -120 4 -3 13 -18 21 -34 29 -56 35 -66 42
-66 5 0 8 -5 8 -11 0 -14 111 -202 124 -211 6 -4 7 -8 3 -8 -5 0 0 -15 11 -32
11 -18 39 -71 63 -118 24 -47 48 -88 52 -91 5 -3 8 -9 8 -13 0 -3 22 -54 50
-113 119 -253 128 -273 216 -497 142 -360 276 -802 338 -1111 9 -44 19 -87 22
-95 3 -8 7 -24 9 -35 1 -11 14 -87 28 -170 14 -82 28 -166 31 -185 15 -104 37
-283 41 -340 3 -36 7 -76 10 -90 2 -14 6 -72 9 -130 3 -58 8 -136 11 -175 7
-89 7 -630 0 -710 -3 -33 -8 -103 -11 -155 -3 -52 -8 -113 -10 -135 -2 -22 -7
-67 -9 -100 -9 -102 -39 -322 -62 -460 -9 -49 -17 -99 -18 -110 -2 -11 -6 -31
-9 -45 -4 -14 -8 -38 -11 -55 -2 -16 -13 -70 -24 -120 -12 -49 -23 -101 -26
-115 -3 -14 -9 -40 -15 -59 -6 -19 -8 -37 -6 -42 3 -4 1 -10 -5 -14 -5 -3 -10
-14 -10 -24 0 -24 -99 -366 -151 -521 -23 -69 -42 -129 -43 -135 -1 -5 -7 -20
-14 -32 -7 -12 -13 -30 -15 -40 -2 -10 -9 -31 -16 -48 -7 -16 -24 -59 -38 -95
-110 -278 -270 -620 -400 -855 -65 -117 -97 -172 -118 -205 -13 -19 -41 -66
-64 -105 -49 -84 -44 -76 -152 -236 l-86 -128 56 -58 c31 -32 67 -80 79 -106
13 -26 45 -73 72 -102 26 -30 58 -76 71 -102 13 -26 33 -56 45 -67 11 -12 38
-43 58 -71 21 -27 63 -75 95 -105 31 -30 71 -75 88 -100 34 -50 187 -210 200
-210 5 0 23 -13 40 -29 34 -30 163 -101 186 -101 7 0 20 12 29 28 9 15 26 38
37 52 109 138 390 559 497 746 330 577 546 1046 734 1589 36 103 144 450 155
495 2 8 21 85 43 170 89 342 171 775 207 1085 3 28 10 86 15 130 6 44 13 118
16 165 2 47 7 94 9 105 2 11 7 88 11 170 4 91 11 153 18 157 7 5 7 8 -3 8 -11
0 -11 3 0 17 12 15 12 16 -1 8 -12 -6 -13 -5 -2 6 9 10 12 89 12 322 0 169 -4
306 -8 303 -5 -3 -9 1 -9 9 0 8 3 12 7 10 4 -2 7 2 7 10 0 8 -4 12 -9 9 -4 -3
-8 32 -8 78 -1 88 -2 105 -26 373 -74 838 -271 1651 -594 2460 -28 72 -61 150
-72 175 -11 25 -27 61 -36 80 -41 94 -82 181 -168 355 -110 221 -164 322 -288
535 -141 241 -341 542 -525 790 -47 63 -90 120 -96 126 -5 7 -19 24 -30 40
-11 15 -25 32 -30 38 -6 6 -56 67 -112 136 -56 69 -115 141 -133 160 -17 19
-54 61 -83 94 -167 188 -436 460 -638 644 -96 89 -137 125 -254 223 -22 19
-42 36 -45 39 -3 3 -57 47 -120 98 -63 51 -120 97 -127 102 -7 6 -17 10 -23
10 -5 0 -10 4 -10 8 0 16 -605 446 -630 447 -3 0 -19 10 -37 23 -17 12 -36 22
-41 22 -6 0 -12 3 -14 8 -4 9 -209 132 -368 220 -25 13 -51 29 -57 35 -7 5
-13 6 -13 1 0 -5 -4 -4 -8 2 -4 6 -29 21 -57 34 -27 13 -52 26 -55 29 -14 16
-481 238 -594 283 -27 10 -68 27 -90 37 -23 10 -72 31 -111 46 -38 15 -74 30
-80 33 -5 4 -15 7 -20 8 -6 1 -71 24 -145 52 -127 47 -492 169 -528 176 -10 2
-24 6 -32 9 -8 3 -28 9 -45 13 -16 4 -36 9 -42 11 -7 1 -21 5 -30 7 -10 3 -18
5 -18 6 0 1 -7 3 -15 5 -8 1 -35 8 -60 15 -25 7 -52 14 -60 15 -8 2 -15 4 -15
5 0 1 -13 4 -30 6 -16 3 -37 7 -45 11 -8 3 -26 8 -40 10 -14 2 -32 6 -40 10
-17 7 -24 9 -65 16 -26 5 -52 11 -105 22 -8 2 -15 4 -15 5 0 1 -12 3 -27 5
-15 2 -73 13 -130 24 -304 60 -641 106 -958 131 -74 6 -155 13 -180 16 -65 7
-884 16 -891 10z m-3707 -2683 c9 -16 26 -39 38 -53 12 -14 34 -41 49 -60 14
-19 53 -69 86 -111 33 -41 71 -91 85 -109 23 -30 69 -89 142 -181 15 -19 34
-43 42 -54 9 -11 39 -49 66 -85 28 -36 57 -72 65 -82 7 -9 30 -39 51 -67 21
-28 42 -51 46 -51 4 0 8 -5 8 -10 0 -6 5 -16 10 -23 45 -53 70 -84 133 -167
39 -52 76 -100 82 -106 34 -39 225 -284 225 -288 0 -3 12 -18 26 -33 14 -15
51 -62 82 -103 31 -41 61 -80 67 -86 5 -6 21 -26 35 -44 14 -18 31 -39 38 -46
6 -7 12 -17 12 -22 0 -6 4 -12 8 -14 5 -1 42 -46 82 -98 40 -52 92 -118 114
-146 23 -28 52 -65 66 -84 29 -38 185 -237 204 -261 7 -9 41 -51 74 -95 34
-43 67 -85 72 -91 8 -10 1 -13 -32 -13 -24 0 -48 4 -53 8 -6 4 -71 84 -144
177 -188 240 -184 235 -201 255 -8 9 -26 32 -40 50 -14 19 -63 81 -109 139
-46 58 -103 131 -125 161 -23 30 -46 60 -52 65 -6 6 -24 28 -40 50 -16 22 -31
42 -34 45 -10 9 -55 66 -75 94 -11 16 -25 33 -30 40 -6 6 -60 74 -120 151 -60
77 -156 199 -213 270 -56 72 -111 141 -122 155 -91 118 -204 260 -225 282 -14
15 -25 30 -25 35 0 4 -18 28 -40 53 -44 50 -44 50 -85 105 -16 22 -34 45 -40
52 -14 17 -21 26 -99 128 -38 50 -74 95 -80 100 -7 6 -23 26 -36 45 -14 19
-32 42 -40 52 -48 53 -49 59 -17 81 32 23 51 20 69 -10z m-247 -179 c9 -14 40
-56 70 -92 29 -37 101 -128 159 -202 58 -74 121 -152 139 -174 42 -50 44 -62
10 -71 -15 -3 -35 -13 -43 -20 -20 -18 -24 -15 -105 85 -37 47 -76 94 -86 105
-17 18 -138 167 -234 288 -27 34 -36 52 -27 55 7 2 25 15 40 28 35 30 56 30
77 -2z m-187 -311 c56 -68 102 -125 102 -127 0 -3 10 -16 23 -29 25 -27 39
-44 122 -147 33 -41 68 -82 77 -91 37 -38 46 -63 39 -106 l-6 -42 -82 99 c-46
54 -83 104 -83 110 0 5 -4 10 -8 10 -5 0 -60 64 -122 143 -130 161 -142 176
-187 226 -18 20 -33 39 -33 43 0 16 34 47 45 40 7 -4 58 -62 113 -129z m-310
-71 c10 -10 31 -36 47 -57 17 -22 32 -42 35 -45 5 -4 104 -126 145 -178 5 -7
15 -18 20 -25 6 -7 42 -50 80 -97 38 -47 72 -87 75 -90 3 -3 53 -63 110 -135
58 -71 107 -132 110 -135 3 -3 25 -30 50 -60 25 -30 52 -64 62 -75 22 -27 86
-106 101 -125 22 -29 152 -185 157 -190 3 -3 32 -39 65 -80 32 -41 63 -76 67
-78 4 -2 8 -10 8 -18 0 -8 4 -14 9 -14 4 0 30 -28 57 -62 27 -35 54 -69 62
-77 7 -7 49 -58 93 -112 l80 -99 -48 -30 c-26 -16 -50 -30 -54 -30 -3 0 -39
37 -79 83 -41 45 -95 105 -121 132 -52 55 -98 104 -144 156 -16 19 -54 61 -85
95 -149 163 -237 259 -260 284 -14 15 -47 51 -74 81 -27 30 -81 89 -120 132
-39 43 -82 91 -96 106 -24 27 -149 163 -280 306 -35 38 -78 86 -96 105 -45 50
-118 130 -150 164 l-27 30 84 78 c46 43 87 78 92 78 4 0 15 -8 25 -18z m1047
-258 c17 -2 36 -5 44 -6 19 -2 113 -96 107 -107 -4 -5 -1 -11 6 -13 7 -3 13
-33 14 -83 4 -116 -18 -152 -118 -197 -16 -7 -28 -15 -28 -19 0 -12 -154 2
-175 15 -88 59 -117 142 -92 267 9 47 110 153 139 146 10 -3 18 -1 18 3 0 5
12 6 28 3 15 -2 41 -7 57 -9z m-1385 -54 c9 -10 62 -68 117 -127 55 -59 117
-128 139 -152 21 -25 62 -68 89 -96 28 -29 64 -68 80 -87 17 -19 77 -86 135
-149 58 -62 125 -136 150 -164 25 -27 59 -63 75 -80 17 -17 50 -53 74 -80 25
-28 70 -77 100 -111 31 -33 97 -105 147 -160 51 -54 103 -111 115 -125 158
-173 209 -229 239 -260 39 -42 183 -199 251 -273 24 -28 58 -64 74 -82 62 -65
106 -114 103 -115 -2 0 -22 -2 -44 -5 -47 -6 -36 -16 -251 213 -55 59 -132
140 -170 179 -37 39 -122 129 -188 199 -66 70 -154 163 -195 206 -68 70 -209
219 -378 398 -34 36 -120 126 -190 200 -70 74 -144 153 -165 175 -68 72 -300
317 -354 374 -29 30 -53 57 -53 59 0 6 72 83 78 83 3 0 12 -9 22 -20z m64
-554 c88 -93 167 -175 174 -182 11 -12 8 -18 -15 -38 -15 -14 -38 -30 -51 -37
-25 -14 0 -37 -375 351 l-138 143 24 26 c14 14 33 36 43 49 l19 23 79 -83 c43
-46 151 -159 240 -252z m1734 25 c15 -18 32 -38 37 -45 6 -6 59 -73 118 -148
59 -75 113 -143 120 -150 7 -7 24 -29 37 -48 13 -19 35 -46 47 -60 13 -14 26
-33 29 -42 3 -10 9 -18 13 -18 5 0 37 -37 72 -82 35 -46 66 -85 69 -88 3 -3
21 -25 40 -50 19 -25 38 -46 42 -48 4 -2 8 -10 8 -17 0 -7 4 -15 8 -17 4 -1
63 -73 131 -158 67 -85 136 -171 151 -190 16 -19 42 -53 59 -75 17 -22 36 -46
42 -53 8 -9 7 -17 -3 -30 -32 -41 -21 -49 -148 108 -46 58 -90 111 -97 118 -8
8 -26 30 -41 50 -25 34 -63 79 -87 106 -6 6 -37 45 -70 86 -32 41 -62 77 -65
80 -5 4 -130 157 -163 200 -20 25 -201 245 -207 250 -3 3 -17 21 -32 42 -15
20 -33 42 -41 50 -11 11 -117 141 -157 191 -8 11 -20 24 -25 31 -6 6 -28 34
-50 61 -22 28 -44 53 -49 56 -5 4 6 25 24 47 l34 39 64 -81 c35 -45 76 -96 90
-115z m-2023 -217 c138 -141 264 -271 280 -288 47 -50 80 -68 137 -71 58 -3
60 -2 187 92 l70 52 42 -43 c22 -24 40 -48 38 -53 -2 -4 -44 -41 -94 -82 -93
-75 -115 -103 -115 -143 0 -46 4 -68 13 -68 4 0 5 -4 2 -10 -3 -5 -3 -10 2
-10 4 0 14 -12 20 -27 7 -16 24 -41 38 -58 15 -16 45 -52 68 -79 55 -65 109
-128 122 -142 6 -6 30 -35 55 -64 25 -30 59 -70 76 -90 17 -19 40 -46 52 -60
11 -14 32 -38 46 -55 l26 -30 -30 -14 c-29 -14 -31 -14 -67 26 -21 22 -51 55
-67 74 -56 64 -171 194 -186 209 -8 8 -49 53 -90 100 -41 47 -80 90 -86 95 -6
6 -39 44 -75 85 -35 41 -77 89 -94 106 -16 17 -55 60 -85 94 -30 34 -64 72
-75 85 -11 12 -54 60 -95 106 -41 46 -95 106 -120 134 -25 27 -49 55 -55 61
-164 186 -213 236 -239 251 -18 10 -17 12 9 42 16 17 31 31 34 31 4 0 119
-115 256 -256z m1649 186 c26 -33 52 -65 59 -72 7 -7 35 -41 62 -75 28 -35 53
-63 58 -63 4 0 7 -6 7 -14 0 -8 3 -16 8 -18 7 -3 44 -45 102 -118 19 -24 40
-48 45 -54 6 -6 26 -31 46 -56 20 -25 45 -55 55 -67 11 -12 28 -34 39 -49 11
-15 30 -38 43 -50 12 -13 22 -26 22 -29 0 -3 10 -16 23 -29 52 -54 70 -80 58
-84 -7 -2 -25 -17 -41 -32 l-29 -28 -11 32 c-9 28 -47 80 -116 158 -13 15 -24
32 -24 37 0 5 -3 11 -8 13 -4 2 -28 28 -52 58 -25 30 -47 57 -50 60 -3 3 -43
52 -90 110 -110 137 -113 140 -125 154 -6 6 -26 31 -45 56 -19 25 -40 51 -48
58 -7 8 -25 30 -40 50 -15 21 -29 39 -32 42 -3 3 -18 20 -34 38 l-30 32 51 0
c49 0 51 -1 97 -60z m-404 -997 c267 -280 429 -450 493 -516 37 -39 66 -72 63
-74 -6 -6 -48 -15 -91 -18 -23 -2 -45 -5 -50 -6 -20 -6 -141 13 -162 24 -12 7
-43 37 -69 67 -26 30 -66 78 -89 105 -24 28 -75 88 -115 135 -40 47 -84 99
-99 115 -14 17 -46 55 -71 85 -25 30 -54 64 -65 76 -22 23 -33 36 -113 132
l-53 64 68 54 68 54 85 -88 c47 -49 137 -143 200 -209z m1121 126 c13 -18 32
-41 42 -52 23 -27 22 -42 -8 -61 -84 -55 -180 57 -109 128 24 24 49 19 75 -15z
m182 -222 c12 -16 27 -34 32 -40 23 -26 162 -195 190 -230 17 -21 36 -44 43
-52 16 -18 7 -22 -64 -34 -77 -12 -236 -7 -299 9 -49 12 -77 17 -103 19 -15 1
-83 68 -186 183 l-77 87 65 38 c36 21 70 48 75 60 l11 23 41 -22 c61 -32 145
-21 185 23 18 20 18 20 42 -8 13 -15 33 -41 45 -56z m4327 -5216 c0 -8 19 -30
98 -113 l34 -36 -29 -29 c-16 -15 -47 -41 -68 -58 -21 -16 -47 -38 -57 -48
-19 -18 -20 -18 -41 9 -12 15 -37 41 -56 58 -69 64 -84 107 -42 121 9 3 44 28
76 55 55 47 85 61 85 41z m392 -449 c3 -9 61 -79 106 -130 12 -14 22 -28 22
-32 0 -8 -158 -140 -168 -140 -4 0 -17 13 -29 28 -12 15 -42 49 -67 77 -25 27
-46 55 -46 61 0 6 12 19 26 29 27 17 44 31 102 82 39 34 48 39 54 25z m1313
-135 c17 -18 49 -56 72 -84 l43 -51 -23 -15 c-12 -8 -43 -33 -67 -55 -25 -23
-55 -46 -67 -53 -25 -14 -24 -14 -117 94 l-49 58 34 29 c19 16 39 33 44 37 6
5 28 23 50 41 22 17 42 32 45 32 3 0 19 -15 35 -33z m-2132 -304 c7 -5 22 -22
34 -40 l22 -31 -38 -34 c-103 -89 -127 -108 -136 -107 -5 0 -41 37 -78 81
l-69 81 47 41 c26 23 64 55 84 73 l36 32 43 -44 c24 -25 49 -48 55 -52z m2643
-281 c46 -47 53 -47 119 0 l39 28 41 -47 c22 -26 55 -63 73 -82 l33 -34 -40
-41 c-23 -23 -41 -52 -41 -64 0 -20 51 -86 164 -213 23 -25 61 -69 86 -98 25
-29 60 -69 78 -89 17 -20 32 -39 32 -43 0 -4 -19 -22 -42 -41 -24 -18 -44 -36
-46 -40 -2 -4 -23 -21 -46 -37 l-43 -28 -16 26 c-9 14 -47 59 -85 100 -51 55
-75 74 -94 74 -25 0 -82 -39 -133 -90 -12 -13 -25 -23 -29 -23 -4 0 -18 -11
-32 -25 -22 -22 -54 -25 -54 -6 0 4 -29 38 -64 77 -56 60 -72 94 -46 94 10 0
137 106 167 140 13 14 23 33 23 42 0 17 -169 222 -322 392 -21 22 -38 46 -38
53 0 6 19 26 43 44 23 18 49 39 57 46 8 7 26 22 40 33 l25 19 55 -62 c30 -34
73 -81 96 -105z m-786 -20 c0 -5 17 -26 38 -48 20 -21 47 -51 60 -65 l23 -27
-68 -57 c-98 -82 -102 -85 -111 -85 -4 1 -38 40 -76 87 -66 81 -69 86 -50 99
35 25 64 49 106 86 33 30 45 35 60 27 10 -5 18 -13 18 -17z m-847 -873 c15
-18 26 -37 25 -41 -2 -4 -38 -37 -81 -73 -67 -55 -82 -63 -98 -54 -11 6 -23
17 -26 26 -3 8 -15 25 -27 37 -43 45 -76 86 -76 95 0 5 12 16 28 26 15 10 38
28 52 41 14 13 39 35 55 49 l30 25 45 -49 c25 -27 57 -63 73 -82z m2364 -414
l21 -25 -51 -42 c-29 -24 -63 -52 -76 -63 -80 -67 -92 -91 -65 -133 9 -15 25
-34 34 -42 9 -8 39 -43 68 -78 l52 -63 -26 -22 c-14 -12 -43 -36 -63 -53 -68
-57 -101 -75 -101 -55 0 5 -12 22 -27 38 -16 16 -39 42 -52 58 -13 17 -43 50
-65 75 -23 25 -60 68 -84 95 -24 28 -57 65 -74 84 -29 33 -30 35 -12 47 11 7
25 18 32 24 7 6 41 35 75 63 34 28 73 61 87 73 14 12 63 54 110 93 l85 71 55
-60 c30 -33 65 -71 77 -85z m373 29 c36 -42 65 -82 65 -90 0 -7 -36 -43 -80
-79 l-80 -65 -25 28 c-14 15 -48 53 -75 86 l-49 58 25 22 c14 11 45 37 69 56
24 19 48 40 54 47 19 22 30 14 96 -63z m-2240 -183 c0 -4 12 -20 28 -37 15
-16 43 -50 63 -74 l37 -43 -51 -41 c-27 -23 -57 -45 -65 -51 -9 -5 -24 -19
-34 -30 -19 -22 -15 -25 -138 110 l-34 38 48 41 c27 22 65 55 84 73 31 27 62
34 62 14z m2540 -619 c0 -4 16 -26 36 -48 19 -21 51 -56 70 -77 l35 -39 -28
-21 c-15 -12 -33 -26 -39 -32 -7 -5 -31 -26 -55 -45 -23 -19 -52 -44 -64 -55
-12 -11 -42 -36 -66 -55 -24 -19 -53 -42 -63 -50 -11 -8 -36 -30 -57 -48 -42
-37 -36 -39 -104 42 -22 26 -51 59 -64 72 -13 14 -22 26 -20 28 14 9 108 85
129 103 33 29 59 51 111 94 24 20 71 59 104 87 60 50 75 59 75 44z m458 -53
c15 -18 36 -46 47 -64 11 -17 28 -39 38 -49 17 -18 23 -46 9 -46 -4 0 -39 -29
-77 -65 -38 -36 -73 -65 -76 -65 -9 0 -69 62 -69 70 0 4 -20 28 -44 53 l-44
45 31 28 c43 39 149 124 154 124 2 0 16 -14 31 -31z m54 -541 c26 -29 79 -91
118 -137 39 -46 76 -89 83 -96 7 -6 32 -35 57 -64 163 -192 183 -211 212 -211
22 0 61 21 83 45 6 6 33 29 60 50 28 22 56 45 63 52 20 20 27 17 64 -29 20
-24 51 -61 71 -83 l36 -40 -22 -20 c-12 -11 -55 -46 -94 -78 -115 -91 -116
-104 -23 -206 14 -15 45 -51 70 -80 67 -80 100 -85 165 -26 64 57 81 72 116
98 l36 27 16 -22 c8 -13 40 -50 71 -83 30 -33 56 -63 56 -66 0 -3 -28 -28 -62
-56 -35 -28 -73 -61 -85 -72 -12 -12 -27 -21 -33 -21 -5 0 -10 -7 -10 -15 0
-8 -6 -15 -12 -15 -7 0 -53 -34 -102 -76 -49 -41 -95 -74 -101 -72 -7 2 -45
41 -85 88 -40 47 -80 92 -89 101 -9 9 -25 27 -35 40 -24 31 -139 162 -147 169
-3 3 -32 37 -64 75 -33 39 -74 86 -92 105 -18 19 -33 38 -33 41 0 16 -59 30
-78 20 -22 -11 -143 -106 -181 -141 -24 -22 -25 -22 -38 -4 -19 26 -109 128
-165 188 -26 27 -46 51 -44 53 2 2 -12 21 -31 41 -84 90 -220 247 -271 314
-11 14 -4 23 55 73 37 31 86 72 108 91 22 19 51 44 65 55 119 96 150 124 150
133 1 11 42 -32 142 -146z m-1146 -524 c44 -51 97 -113 119 -139 22 -26 57
-66 77 -89 l38 -41 -29 -27 c-17 -16 -34 -28 -40 -28 -5 0 -18 -10 -28 -22
-10 -13 -32 -33 -50 -45 l-31 -22 -41 46 c-22 25 -41 48 -41 50 0 2 -23 27
-51 56 -27 28 -53 56 -57 63 -9 15 -83 102 -123 143 l-32 34 39 34 c22 19 51
44 65 57 14 12 36 30 49 39 29 20 16 30 136 -109z m735 -374 c10 -6 19 -17 19
-24 0 -8 25 -40 55 -72 l54 -58 -22 -24 c-20 -22 -114 -97 -144 -115 -13 -8
-44 19 -88 78 -16 21 -37 47 -47 57 -25 25 -23 29 25 65 23 17 59 48 80 67 41
40 41 40 68 26z m637 -289 c56 -59 112 -125 112 -132 0 -5 -75 -72 -152 -134
-17 -14 -30 -2 -98 87 -8 11 -25 30 -37 43 -13 13 -23 28 -23 32 1 4 21 24 47
43 25 19 60 47 77 62 17 15 35 28 39 28 4 0 20 -13 35 -29z"/>
<path d="M17001 3229 c-61 -50 -113 -98 -116 -107 -8 -29 3 -63 30 -88 14 -12
25 -25 25 -28 0 -5 24 -32 102 -113 24 -26 49 -43 63 -43 13 0 47 19 77 42 29
23 58 46 63 50 6 4 28 23 50 43 22 19 43 35 47 35 3 0 10 13 16 28 13 37 8 45
-99 167 -116 133 -113 133 -258 14z"/>
<path d="M16393 2727 c-15 -12 -61 -50 -102 -84 -41 -35 -77 -63 -82 -63 -4 0
-12 -14 -18 -32 -9 -26 -8 -36 6 -57 21 -33 107 -136 144 -175 16 -17 29 -33
29 -38 0 -4 13 -8 29 -8 19 0 45 13 73 36 23 20 63 53 87 73 82 67 111 96 111
111 0 21 -25 56 -97 136 -35 38 -68 77 -75 87 -7 9 -27 21 -45 26 -27 8 -37 6
-60 -12z"/>
<path d="M17502 2713 c-24 -9 -33 -40 -16 -57 21 -22 51 -20 64 3 18 34 -11
66 -48 54z"/>
<path d="M17347 2699 c-17 -10 -36 -16 -59 -18 -4 -1 -49 -36 -101 -79 -172
-143 -171 -141 -83 -246 64 -76 70 -73 272 120 46 45 55 74 30 107 -13 17 -14
47 -1 78 3 9 -1 23 -10 33 -19 19 -24 19 -48 5z"/>
<path d="M16804 2277 c-36 -21 -78 -51 -94 -67 -8 -8 -37 -32 -65 -53 -51 -39
-76 -80 -66 -109 5 -14 72 -96 109 -135 32 -32 73 -9 199 113 109 107 110 114
23 204 -60 63 -71 68 -106 47z"/>
</g>
</svg>
